
<!-- Generator: Adobe Illustrator 22.0.1, SVG Export Plug-In . SVG Version: 6.00 Build 0)  -->
<svg version="1.1" id="Слой_1" xmlns="http://www.w3.org/2000/svg" xmlns:xlink="http://www.w3.org/1999/xlink" x="0px" y="0px"
	 viewBox="0 0 42 40" style="enable-background:new 0 0 42 40;" xml:space="preserve" width="40px" height="40px">
<g>
	<g>
		<g>
			<path d="M37.2,13.8V8.3c0-3.9-3.1-7-7-7h-18c-3.9,0-7,3.1-7,7v5.5c-2.3,0.5-4,2.6-4,5.1V26c0,5.3,4,9.6,9.1,10.2v2.6
				c0,0.7,0.5,1.2,1.2,1.2c0.7,0,1.2-0.5,1.2-1.2v-2.5h17v2.5c0,0.7,0.5,1.2,1.2,1.2c0.7,0,1.2-0.5,1.2-1.2v-2.6
				c5.1-0.6,9.1-5,9.1-10.2v-7.1C41.2,16.4,39.5,14.4,37.2,13.8z M7.5,8.3c0-2.6,2.1-4.6,4.6-4.6h18c2.6,0,4.6,2.1,4.6,4.6v5.5
				c-2.3,0.5-4,2.6-4,5.1v7H11.5v-7c0-2.5-1.7-4.5-4-5.1V8.3z M38.8,26c0,4.4-3.6,7.9-7.9,7.9H11.5c-4.4,0-7.9-3.6-7.9-7.9v-7.1
				c0-1.6,1.3-2.8,2.8-2.8c1.6,0,2.8,1.3,2.8,2.8V26c0,1.3,1,2.3,2.3,2.3h19.4c1.3,0,2.3-1,2.3-2.3v-7.1c0-1.6,1.3-2.8,2.8-2.8
				c1.6,0,2.8,1.3,2.8,2.8L38.8,26L38.8,26z"/>
		</g>
	</g>
	<g>
		<g>
			<path d="M17.8,10.8c-0.6,0-1.2,0.5-1.2,1.2c0,0.6,0.5,1.2,1.2,1.2c0.6,0,1.2-0.5,1.2-1.2
				C18.9,11.3,18.4,10.8,17.8,10.8z"/>
		</g>
	</g>
	<g>
		<g>
			<path d="M17.8,16.9c-0.6,0-1.2,0.5-1.2,1.2c0,0.6,0.5,1.2,1.2,1.2c0.6,0,1.2-0.5,1.2-1.2
				C18.9,17.4,18.4,16.9,17.8,16.9z"/>
		</g>
	</g>
	<g>
		<g>
			<path d="M24.6,10.8c-0.6,0-1.2,0.5-1.2,1.2c0,0.6,0.5,1.2,1.2,1.2c0.6,0,1.2-0.5,1.2-1.2
				C25.7,11.3,25.2,10.8,24.6,10.8z"/>
		</g>
	</g>
	<g>
		<g>
			<path d="M24.6,16.9c-0.6,0-1.2,0.5-1.2,1.2c0,0.6,0.5,1.2,1.2,1.2c0.6,0,1.2-0.5,1.2-1.2
				C25.7,17.4,25.2,16.9,24.6,16.9z"/>
		</g>
	</g>
</g>
</svg>
