
<!-- Generator: Adobe Illustrator 22.0.1, SVG Export Plug-In . SVG Version: 6.00 Build 0)  -->
<svg version="1.1" id="Слой_1" xmlns="http://www.w3.org/2000/svg" xmlns:xlink="http://www.w3.org/1999/xlink" x="0px" y="0px"
	 viewBox="0 0 40 40" style="enable-background:new 0 0 40 40;" xml:space="preserve" width="40px" height="40px">
<g>
	<g>
		<path class="st1" d="M39.1,23.9l-3.3-6.6c-0.2-10.8-10-19.1-21.1-17C7.8,1.7,2.2,7.3,0.9,14.2C0,19.1,1.1,24,4,27.9
			c2.4,3.2,3.7,7.1,3.7,10.9c0,0.6,0.5,1.2,1.2,1.2h16.4c0.6,0,1.2-0.5,1.2-1.2v-3.1c0-0.3,0.3-0.6,0.6-0.6h5.3
			c1.9,0,3.5-1.6,3.5-3.5v-3.5h0.6c1,0,2-0.5,2.5-1.4C39.5,25.8,39.5,24.8,39.1,23.9z M36.9,25.5c-0.1,0.1-0.2,0.3-0.5,0.3h-1.8
			c-0.6,0-1.2,0.5-1.2,1.2v4.7c0,0.6-0.5,1.2-1.2,1.2H27c-1.6,0-3,1.3-3,3v1.9H10c-0.2-3.9-1.7-7.8-4.1-11.1
			c-2.5-3.4-3.4-7.6-2.7-11.9c1.1-6,5.9-10.8,11.9-12C24.8,0.8,33.4,8,33.4,17.6c0,0.2,0,0.4,0.1,0.5l3.4,6.8
			C37.1,25.2,37,25.4,36.9,25.5z"/>
	</g>
</g>
<g>
	<g>
		<path class="st1" d="M27.6,9.4h-4.7c-0.6,0-1.2,0.5-1.2,1.2c0,0.6,0.5,1.2,1.2,1.2h2l-6.6,6.6l-3.9-3.9c-0.2-0.2-0.5-0.3-0.8-0.3
			c-0.3,0-0.6,0.1-0.8,0.3l-7,7c-0.5,0.5-0.5,1.2,0,1.7c0.5,0.5,1.2,0.5,1.7,0l6.2-6.2l3.9,3.9c0.5,0.5,1.2,0.5,1.7,0l7.3-7.3v1.7
			c0,0.6,0.5,1.2,1.2,1.2s1.2-0.5,1.2-1.2v-4.7C28.8,9.9,28.2,9.4,27.6,9.4z"/>
	</g>
</g>
</svg>
