
<!-- Generator: Adobe Illustrator 22.0.1, SVG Export Plug-In . SVG Version: 6.00 Build 0)  -->
<svg version="1.1" id="Слой_1" xmlns="http://www.w3.org/2000/svg" xmlns:xlink="http://www.w3.org/1999/xlink" x="0px" y="0px"
	 viewBox="0 0 40 40" style="enable-background:new 0 0 40 40;" xml:space="preserve" width="34px" height="40px">
<g>
	<path class="st1" d="M36.8,6.6l-3.7-6.1C33,0.2,32.6,0,32.3,0c-0.4,0-0.7,0.2-0.9,0.5l-3.7,6.1c-0.1,0.2-0.1,0.3-0.1,0.5v3.1h-2.8
		V7.1c0-0.2-0.1-0.4-0.2-0.5l-3.7-6.1C20.7,0.2,20.3,0,20,0c-0.4,0-0.7,0.2-0.9,0.5l-3.7,6.1c-0.1,0.2-0.1,0.3-0.1,0.5v3.1h-2.8V7.1
		c0-0.2-0.1-0.4-0.1-0.5L8.6,0.5C8.4,0.2,8.1,0,7.7,0S7,0.2,6.8,0.5L3.2,6.6C3.1,6.8,3,7,3,7.1V39c0,0.6,0.5,1,1,1h7.4
		c0.6,0,1-0.5,1-1v-4.5h2.8V39c0,0.6,0.5,1,1,1h7.4c0.6,0,1-0.5,1-1v-4.5h2.8V39c0,0.6,0.5,1,1,1h7.4c0.6,0,1-0.5,1-1V7.1
		C37,7,36.9,6.8,36.8,6.6z M34.9,7.4v30.5h-5.3V7.4L32.3,3L34.9,7.4z M27.5,28.9v3.5h-2.8v-3.5H27.5z M27.5,17.9v8.9h-2.8v-8.9H27.5
		z M24.7,15.8v-3.5h2.8v3.5H24.7z M22.7,7.4v30.5h-5.4V7.4L20,3L22.7,7.4z M15.2,28.9v3.5h-2.8v-3.5H15.2z M15.2,17.9v8.9h-2.8v-8.9
		H15.2z M12.4,15.8v-3.5h2.8v3.5H12.4z M10.4,7.4v30.5H5.1V7.4L7.7,3L10.4,7.4z"/>
	<path class="st1" d="M32.4,26c0.6,0,1-0.5,1-1v-0.3c0-0.6-0.5-1-1-1c-0.6,0-1,0.5-1,1V25C31.3,25.6,31.8,26,32.4,26z"/>
	<path class="st1" d="M32.4,36.5c0.6,0,1-0.5,1-1v-7.9c0-0.6-0.5-1-1-1c-0.6,0-1,0.5-1,1v7.9C31.3,36,31.8,36.5,32.4,36.5z"/>
</g>
</svg>
